<svg xmlns="http://www.w3.org/2000/svg" xmlns:xlink="http://www.w3.org/1999/xlink" width="1080" zoomAndPan="magnify" viewBox="0 0 810 809.999993" height="1080" preserveAspectRatio="xMidYMid meet" version="1.2"><defs><clipPath id="53fc0d5ed5"><path d="M 84 74.816406 L 725 74.816406 L 725 734.816406 L 84 734.816406 Z M 84 74.816406 "/></clipPath></defs><g id="6adec7d84c"><g clip-rule="nonzero" clip-path="url(#53fc0d5ed5)"><path style=" stroke:none;fill-rule:nonzero;fill:#fbfbfb;fill-opacity:1;" d="M 85.046875 411.386719 C 83.246094 449.921875 110.582031 486.660156 161.855469 515.394531 C 159.1875 525.261719 157.054688 535.0625 155.585938 544.863281 C 141.183594 547.066406 130.050781 559.398438 130.050781 574.402344 C 130.050781 590.203125 142.386719 603.003906 157.851562 604.203125 C 166.121094 635.140625 184.457031 655.210938 212.726562 663.410156 C 222.324219 666.210938 232.726562 667.542969 243.863281 667.542969 C 262.332031 667.542969 282.664062 663.878906 303.933594 657.34375 C 325.890625 697.203125 359.464844 734.816406 405.011719 734.816406 C 416.746094 734.816406 428.28125 732.015625 439.550781 726.75 C 444.882812 731.683594 452.015625 734.816406 459.882812 734.816406 C 476.417969 734.816406 489.886719 721.347656 489.886719 704.8125 C 489.886719 698.878906 488.085938 693.347656 485.085938 688.679688 C 492.554688 679.277344 499.355469 669.011719 505.558594 658.007812 C 524.492188 663.34375 543.160156 666.410156 561.09375 666.410156 C 561.5625 666.410156 561.960938 666.410156 562.429688 666.34375 C 566.960938 677.144531 577.628906 684.679688 590.03125 684.679688 C 606.566406 684.679688 620.035156 671.277344 620.035156 654.675781 C 620.035156 653.277344 619.835938 651.941406 619.636719 650.609375 C 640.769531 636.742188 653.371094 616.273438 656.839844 589.335938 C 659.707031 567.132812 656.304688 541.863281 648.171875 515.328125 C 700.574219 486.058594 728.113281 448.1875 724.644531 408.320312 C 721.445312 372.113281 694.175781 339.378906 648.238281 313.84375 C 653.304688 295.773438 656.238281 277.90625 656.4375 260.703125 C 668.171875 256.636719 676.640625 245.570312 676.640625 232.5 C 676.640625 215.964844 663.238281 202.496094 646.636719 202.496094 C 645.238281 202.496094 643.902344 202.699219 642.503906 202.898438 C 629.902344 182.03125 611.101562 168.960938 586.429688 164.160156 C 562.894531 159.625 535.09375 163.09375 505.890625 171.894531 C 486.6875 136.359375 461.683594 109.289062 430.015625 99.019531 C 427.28125 85.285156 415.148438 74.816406 400.613281 74.816406 C 384.808594 74.816406 372.007812 87.085938 370.808594 102.554688 C 343.40625 115.085938 321.203125 140.222656 303.800781 171.894531 C 254.195312 157.027344 208.726562 158.558594 178.722656 188.496094 C 147.1875 220.097656 146.320312 265.902344 161.253906 314.507812 C 113.515625 341.246094 86.78125 374.914062 85.046875 411.386719 Z M 216.527344 650.609375 C 193.457031 643.941406 178.324219 627.605469 171.121094 602.269531 C 182.191406 597.804688 190.058594 587.070312 190.058594 574.402344 C 190.058594 560.933594 181.125 549.664062 168.921875 545.867188 C 170.121094 537.929688 171.855469 529.929688 174.054688 521.796875 C 201.125 535.332031 232.460938 546.066406 266.265625 553.800781 C 274.066406 587.9375 284.734375 619.140625 297.867188 645.742188 C 267.332031 654.742188 239.195312 657.277344 216.527344 650.609375 Z M 252.128906 452.855469 C 242.664062 440.453125 233.527344 427.519531 224.925781 414.320312 C 233.394531 401.449219 242.527344 388.714844 252.128906 376.3125 C 250.597656 402.050781 250.664062 427.71875 252.128906 452.855469 Z M 216.925781 401.652344 C 200.457031 374.847656 186.65625 347.378906 177.523438 320.976562 C 182.722656 318.308594 188.191406 315.773438 193.859375 313.308594 C 199.324219 320.109375 207.660156 324.644531 217.125 324.644531 C 233.660156 324.644531 247.128906 311.175781 247.128906 294.640625 L 247.128906 294.4375 C 252.199219 292.972656 257.464844 291.640625 263 290.304688 C 258.730469 311.441406 255.730469 332.511719 253.929688 352.445312 C 240.929688 368.179688 228.394531 384.648438 216.925781 401.652344 Z M 217.257812 426.320312 C 229.0625 444.121094 241.59375 460.921875 253.929688 476.324219 C 255.996094 497.859375 259.0625 518.929688 263.128906 539.132812 C 231.59375 531.53125 202.65625 521.464844 177.855469 508.859375 C 186.789062 481.457031 200.457031 453.523438 217.257812 426.320312 Z M 347.671875 276.703125 C 385.078125 273.4375 423.546875 273.371094 460.949219 276.570312 C 491.140625 300.894531 516.738281 325.808594 542.757812 357.84375 C 546.46875 395.332031 546.757812 430.9375 543.027344 471.992188 C 515.683594 504.742188 489.695312 529.96875 461.75 552.863281 C 423.945312 556.066406 385.144531 556 347.605469 552.664062 C 316.085938 526.375 290.65625 500.390625 267.132812 471.789062 C 263.730469 434.652344 263.464844 396.050781 266.796875 358.113281 C 292.332031 327.578125 320.335938 299.707031 347.671875 276.703125 Z M 269.332031 334.578125 C 271.265625 319.84375 274 303.707031 277.597656 287.039062 C 292.800781 283.773438 308.46875 281.171875 324.539062 279.105469 C 306.335938 295.441406 287.535156 314.175781 269.332031 334.578125 Z M 366.007812 261.96875 C 378.007812 252.835938 390.742188 243.835938 403.945312 235.367188 C 417.148438 243.835938 429.949219 252.769531 442.082031 261.902344 C 416.8125 260.503906 391.277344 260.570312 366.007812 261.96875 Z M 485.085938 279.105469 C 501.15625 281.105469 516.824219 283.707031 532.089844 286.972656 C 535.359375 302.640625 537.957031 318.375 540.027344 333.84375 C 522.851562 314.253906 506.519531 297.753906 485.085938 279.105469 Z M 540.492188 495.394531 C 538.492188 511.128906 535.890625 526.929688 532.625 542.597656 C 517.222656 545.867188 501.355469 548.464844 485.21875 550.464844 C 506.484375 531.894531 521.878906 516.367188 540.492188 495.394531 Z M 442.683594 567.867188 C 430.148438 577.335938 417.28125 586.335938 404.210938 594.667969 C 391.277344 586.203125 378.675781 577.136719 366.542969 567.800781 C 392.226562 569.40625 417.074219 569.375 442.683594 567.867188 Z M 324.203125 550.132812 C 308.335938 548.132812 292.800781 545.53125 277.800781 542.398438 C 274.53125 527.128906 271.796875 511.394531 269.730469 495.261719 C 286.910156 515.050781 302.019531 530.464844 324.203125 550.132812 Z M 281.066406 557 C 301.066406 561 321.804688 564.066406 342.9375 566.066406 C 358.273438 578.667969 374.742188 591.003906 391.8125 602.40625 C 364.609375 618.871094 337.070312 632.40625 310.871094 641.476562 C 298.734375 617.136719 288.734375 588.46875 281.066406 557 Z M 475.484375 679.277344 C 470.953125 676.476562 465.617188 674.8125 459.882812 674.8125 C 443.347656 674.8125 429.882812 688.28125 429.882812 704.816406 C 429.882812 708.613281 430.679688 712.214844 431.949219 715.546875 C 423.148438 719.414062 414.078125 721.484375 405.011719 721.484375 C 365.777344 721.484375 336.023438 687.433594 316.9375 653.007812 C 345.273438 642.941406 374.941406 628.140625 403.878906 610.339844 C 432.613281 628.542969 462.75 643.941406 492.554688 653.941406 C 487.355469 663.011719 481.621094 671.476562 475.484375 679.277344 Z M 499.089844 642.140625 C 471.484375 633.140625 443.347656 619.140625 416.347656 602.472656 C 433.546875 591.203125 450.417969 579 466.484375 566.132812 C 487.820312 564.132812 508.957031 561.066406 529.425781 556.933594 C 522.15625 587.269531 512.222656 616.539062 499.089844 642.140625 Z M 643.636719 587.601562 C 640.769531 609.40625 631.101562 626.207031 614.832031 637.808594 C 609.367188 629.941406 600.300781 624.671875 590.03125 624.671875 C 574.097656 624.671875 561.09375 637.273438 560.230469 653.007812 C 544.625 652.945312 528.425781 650.410156 511.957031 645.941406 C 525.890625 618.074219 536.292969 586.402344 543.695312 553.734375 C 550.960938 552.066406 558.09375 550.265625 565.164062 548.332031 C 570.5625 556.332031 579.699219 561.601562 590.03125 561.601562 C 607.078125 561.601562 621.328125 547.140625 619.835938 529.261719 C 625.4375 526.796875 630.902344 524.261719 636.105469 521.664062 C 643.167969 545.53125 646.167969 568.066406 643.636719 587.601562 Z M 560.496094 535.796875 C 555.960938 537.0625 551.425781 538.265625 546.828125 539.332031 C 550.960938 518.597656 553.894531 497.726562 555.894531 477.324219 C 568.628906 461.789062 581.097656 445.1875 592.632812 427.921875 C 609.101562 454.988281 622.769531 482.59375 631.96875 508.929688 C 626.835938 511.53125 621.367188 513.996094 615.765625 516.460938 C 610.566406 507.59375 601.03125 501.59375 590.03125 501.59375 C 572.476562 501.59375 557.679688 517.019531 560.496094 535.796875 Z M 557.628906 376.648438 C 567.226562 389.25 576.363281 402.316406 584.898438 415.585938 C 576.363281 428.652344 567.230469 441.386719 557.761719 453.589844 C 559.558594 423.632812 559.367188 401.632812 557.628906 376.648438 Z M 555.5625 352.179688 C 553.425781 332.042969 550.292969 311.042969 546.027344 290.105469 C 579.097656 298.039062 608.167969 308.441406 632.300781 320.707031 C 623.367188 348.246094 609.5 376.246094 592.898438 403.050781 C 581.363281 385.515625 568.761719 368.445312 555.5625 352.179688 Z M 711.308594 409.519531 C 714.308594 443.320312 690.109375 476.191406 643.96875 502.460938 C 633.902344 473.925781 618.832031 444.253906 600.832031 415.386719 C 618.902344 386.847656 634.167969 356.847656 644.167969 327.109375 C 684.375 350.179688 708.644531 378.847656 711.308594 409.519531 Z M 583.898438 177.292969 C 603.832031 181.164062 619.234375 191.363281 629.835938 207.699219 C 621.902344 213.097656 616.632812 222.164062 616.632812 232.5 C 616.632812 247.835938 628.234375 260.371094 643.101562 262.101562 C 642.835938 276.835938 640.371094 292.105469 636.234375 307.574219 C 610.097656 294.640625 578.761719 283.773438 542.890625 275.703125 C 535.492188 243.167969 525.289062 211.429688 511.957031 183.761719 C 538.160156 176.09375 562.960938 173.226562 583.898438 177.292969 Z M 528.890625 272.703125 C 508.824219 268.636719 488.019531 265.703125 466.75 263.703125 C 451.015625 251.035156 434.214844 238.765625 416.878906 227.367188 C 443.882812 211.03125 472.351562 196.964844 499.6875 187.628906 C 512.089844 213.03125 521.691406 242.367188 528.890625 272.703125 Z M 372.875 116.289062 C 377.410156 127.15625 388.078125 134.824219 400.613281 134.824219 C 414.347656 134.824219 425.878906 125.488281 429.347656 112.820312 C 455.683594 122.621094 476.886719 145.691406 493.621094 175.960938 C 463.882812 186.296875 433.214844 201.632812 404.480469 219.367188 C 375.675781 201.429688 345.738281 186.230469 316.804688 176.09375 C 331.605469 149.625 350.074219 127.890625 372.875 116.289062 Z M 310.601562 187.960938 C 337.273438 197.363281 365.007812 211.363281 391.542969 227.566406 C 373.941406 239.101562 357.339844 251.4375 342.339844 263.769531 C 321.269531 265.769531 300.667969 268.769531 280.867188 272.703125 C 287.867188 243.835938 297.667969 214.097656 310.601562 187.960938 Z M 188.191406 197.964844 C 214.191406 171.894531 253.996094 170.960938 297.535156 183.828125 C 283.867188 211.699219 273.464844 243.570312 266.132812 275.839844 C 258.199219 277.636719 250.863281 279.503906 243.996094 281.4375 C 239.0625 271.503906 228.929688 264.636719 217.125 264.636719 C 200.59375 264.636719 187.125 278.039062 187.125 294.640625 C 187.125 296.90625 187.457031 299.175781 187.921875 301.308594 C 182.921875 303.507812 178.054688 305.773438 173.386719 308.109375 C 160.519531 263.96875 162.054688 224.03125 188.191406 197.964844 Z M 165.589844 327.445312 C 175.988281 356.3125 191.457031 385.847656 209.058594 413.652344 C 190.859375 442.320312 175.722656 472.257812 165.855469 502.328125 C 120.785156 476.457031 96.847656 444.589844 98.382812 412.050781 C 99.78125 381.316406 123.851562 351.511719 165.589844 327.445312 Z M 165.589844 327.445312 "/></g><path style=" stroke:none;fill-rule:nonzero;fill:#fbfbfb;fill-opacity:1;" d="M 539.582031 137.886719 C 535.125 138.382812 530.59375 139.027344 525.984375 139.820312 L 528.25 152.960938 C 532.585938 152.210938 536.859375 151.605469 541.050781 151.144531 Z M 539.582031 137.886719 "/><path style=" stroke:none;fill-rule:nonzero;fill:#fbfbfb;fill-opacity:1;" d="M 567.167969 136.746094 C 562.664062 136.59375 558.039062 136.621094 553.324219 136.820312 L 553.898438 150.144531 C 558.261719 149.953125 562.542969 149.9375 566.726562 150.074219 Z M 567.167969 136.746094 "/><path style=" stroke:none;fill-rule:nonzero;fill:#fbfbfb;fill-opacity:1;" d="M 608.363281 143.953125 L 604.054688 156.570312 C 608.0625 157.941406 611.957031 159.539062 615.636719 161.324219 L 621.457031 149.324219 C 617.289062 147.304688 612.890625 145.492188 608.363281 143.953125 Z M 608.363281 143.953125 "/><path style=" stroke:none;fill-rule:nonzero;fill:#fbfbfb;fill-opacity:1;" d="M 594.820312 140.160156 C 590.386719 139.171875 585.75 138.382812 581.03125 137.808594 L 579.429688 151.046875 C 583.710938 151.566406 587.910156 152.28125 591.917969 153.175781 Z M 594.820312 140.160156 "/><path style=" stroke:none;fill-rule:nonzero;fill:#fbfbfb;fill-opacity:1;" d="M 645.105469 164.949219 C 641.542969 161.835938 637.734375 158.9375 633.789062 156.332031 L 626.445312 167.464844 C 629.894531 169.738281 633.222656 172.269531 636.328125 174.988281 Z M 645.105469 164.949219 "/><path style=" stroke:none;fill-rule:nonzero;fill:#fbfbfb;fill-opacity:1;" d="M 234.914062 692.4375 C 239.414062 692.808594 244.074219 692.996094 248.777344 692.996094 L 248.777344 679.664062 C 244.441406 679.664062 240.144531 679.492188 236.007812 679.148438 Z M 234.914062 692.4375 "/><path style=" stroke:none;fill-rule:nonzero;fill:#fbfbfb;fill-opacity:1;" d="M 207.398438 687.5 C 211.792969 688.765625 216.398438 689.828125 221.070312 690.660156 L 223.402344 677.527344 C 219.183594 676.78125 215.042969 675.824219 211.097656 674.683594 Z M 207.398438 687.5 "/><path style=" stroke:none;fill-rule:nonzero;fill:#fbfbfb;fill-opacity:1;" d="M 159.886719 659.988281 C 162.96875 663.054688 166.234375 665.941406 169.609375 668.566406 L 177.800781 658.035156 C 174.851562 655.746094 171.992188 653.226562 169.300781 650.542969 Z M 159.886719 659.988281 "/><path style=" stroke:none;fill-rule:nonzero;fill:#fbfbfb;fill-opacity:1;" d="M 194.101562 682.8125 L 199.257812 670.519531 C 195.398438 668.898438 191.632812 667.027344 188.085938 664.96875 L 181.394531 676.5 C 185.4375 678.847656 189.707031 680.972656 194.101562 682.8125 Z M 194.101562 682.8125 "/><path style=" stroke:none;fill-rule:nonzero;fill:#fbfbfb;fill-opacity:1;" d="M 128.242188 276.519531 C 128.679688 280.988281 129.246094 285.523438 129.960938 290.125 L 143.140625 288.074219 C 142.464844 283.726562 141.921875 279.445312 141.511719 275.226562 Z M 128.242188 276.519531 "/><path style=" stroke:none;fill-rule:nonzero;fill:#fbfbfb;fill-opacity:1;" d="M 135.644531 207.8125 L 148.148438 212.449219 C 149.625 208.46875 151.324219 204.636719 153.207031 201.042969 L 141.394531 194.851562 C 139.253906 198.945312 137.3125 203.304688 135.644531 207.8125 Z M 135.644531 207.8125 "/><path style=" stroke:none;fill-rule:nonzero;fill:#fbfbfb;fill-opacity:1;" d="M 167.539062 180.863281 L 157.847656 171.699219 C 154.601562 175.136719 151.558594 178.84375 148.804688 182.71875 L 159.679688 190.441406 C 162.066406 187.066406 164.71875 183.847656 167.539062 180.863281 Z M 167.539062 180.863281 "/><path style=" stroke:none;fill-rule:nonzero;fill:#fbfbfb;fill-opacity:1;" d="M 128.886719 235.035156 L 142.09375 236.898438 C 142.691406 232.628906 143.492188 228.445312 144.46875 224.472656 L 131.523438 221.285156 C 130.4375 225.699219 129.550781 230.324219 128.886719 235.035156 Z M 128.886719 235.035156 "/><path style=" stroke:none;fill-rule:nonzero;fill:#fbfbfb;fill-opacity:1;" d="M 127.339844 257.886719 C 127.34375 259.484375 127.363281 261.101562 127.402344 262.726562 L 140.738281 262.394531 C 140.699219 260.859375 140.679688 259.339844 140.671875 257.855469 C 140.671875 255.054688 140.746094 252.292969 140.882812 249.566406 L 127.558594 248.898438 C 127.410156 251.84375 127.339844 254.828125 127.339844 257.886719 Z M 127.339844 257.886719 "/><path style=" stroke:none;fill-rule:nonzero;fill:#fbfbfb;fill-opacity:1;" d="M 683.28125 571.246094 C 683.28125 568.824219 683.234375 566.375 683.128906 563.894531 L 669.808594 564.441406 C 669.898438 566.738281 669.945312 569.007812 669.945312 571.246094 C 669.945312 573.269531 669.90625 575.269531 669.835938 577.25 L 683.15625 577.753906 C 683.242188 575.605469 683.28125 573.4375 683.28125 571.246094 Z M 683.28125 571.246094 "/><path style=" stroke:none;fill-rule:nonzero;fill:#fbfbfb;fill-opacity:1;" d="M 682.101562 550.152344 C 681.621094 545.695312 680.980469 541.164062 680.195312 536.550781 L 667.054688 538.789062 C 667.789062 543.128906 668.386719 547.394531 668.84375 551.59375 Z M 682.101562 550.152344 "/><path style=" stroke:none;fill-rule:nonzero;fill:#fbfbfb;fill-opacity:1;" d="M 675.703125 618.925781 L 663.121094 614.511719 C 661.730469 618.480469 660.09375 622.359375 658.273438 626.042969 L 670.210938 631.96875 C 672.28125 627.800781 674.132812 623.410156 675.703125 618.925781 Z M 675.703125 618.925781 "/><path style=" stroke:none;fill-rule:nonzero;fill:#fbfbfb;fill-opacity:1;" d="M 644.414062 646.625 L 654.375 655.488281 C 657.523438 651.949219 660.457031 648.167969 663.09375 644.25 L 652.027344 636.808594 C 649.726562 640.230469 647.164062 643.53125 644.414062 646.625 Z M 644.414062 646.625 "/><path style=" stroke:none;fill-rule:nonzero;fill:#fbfbfb;fill-opacity:1;" d="M 682.035156 591.621094 L 668.804688 589.953125 C 668.273438 594.191406 667.53125 598.386719 666.605469 602.414062 L 679.601562 605.40625 C 680.628906 600.9375 681.445312 596.300781 682.035156 591.621094 Z M 682.035156 591.621094 "/><path style=" stroke:none;fill-rule:nonzero;fill:#fbfbfb;fill-opacity:1;" d="M 491.921875 333.867188 C 491.921875 334.824219 491.789062 335.78125 491.519531 336.734375 C 491.25 337.6875 490.847656 338.636719 490.3125 339.574219 C 489.777344 340.515625 489.113281 341.441406 488.316406 342.359375 C 487.523438 343.277344 486.601562 344.179688 485.550781 345.0625 C 484.5 345.949219 483.332031 346.8125 482.039062 347.660156 C 480.746094 348.503906 479.339844 349.324219 477.816406 350.121094 C 476.292969 350.917969 474.660156 351.6875 472.921875 352.429688 C 471.183594 353.167969 469.34375 353.878906 467.40625 354.554688 C 465.46875 355.234375 463.441406 355.875 461.320312 356.484375 C 459.203125 357.089844 457.003906 357.660156 454.722656 358.195312 C 452.445312 358.726562 450.09375 359.21875 447.675781 359.671875 C 445.261719 360.121094 442.785156 360.53125 440.253906 360.898438 C 437.71875 361.265625 435.140625 361.585938 432.519531 361.863281 C 429.894531 362.144531 427.238281 362.375 424.550781 362.5625 C 421.863281 362.75 419.152344 362.890625 416.425781 362.984375 C 413.699219 363.078125 410.960938 363.125 408.222656 363.125 C 405.480469 363.125 402.746094 363.078125 400.015625 362.984375 C 397.289062 362.890625 394.582031 362.75 391.890625 362.5625 C 389.203125 362.375 386.546875 362.144531 383.925781 361.863281 C 381.300781 361.585938 378.722656 361.265625 376.191406 360.898438 C 373.65625 360.53125 371.183594 360.121094 368.765625 359.671875 C 366.347656 359.21875 364 358.726562 361.71875 358.195312 C 359.441406 357.660156 357.242188 357.089844 355.121094 356.484375 C 353.003906 355.875 350.972656 355.234375 349.035156 354.554688 C 347.097656 353.878906 345.257812 353.167969 343.519531 352.429688 C 341.78125 351.6875 340.148438 350.917969 338.625 350.121094 C 337.105469 349.324219 335.695312 348.503906 334.402344 347.660156 C 333.113281 346.8125 331.941406 345.949219 330.890625 345.0625 C 329.84375 344.179688 328.921875 343.277344 328.125 342.359375 C 327.328125 341.441406 326.664062 340.515625 326.128906 339.574219 C 325.59375 338.636719 325.191406 337.6875 324.925781 336.734375 C 324.65625 335.78125 324.519531 334.824219 324.519531 333.867188 C 324.519531 332.910156 324.65625 331.953125 324.925781 331 C 325.191406 330.046875 325.59375 329.097656 326.128906 328.160156 C 326.664062 327.21875 327.328125 326.292969 328.125 325.375 C 328.921875 324.457031 329.84375 323.554688 330.890625 322.671875 C 331.941406 321.785156 333.113281 320.921875 334.402344 320.074219 C 335.695312 319.230469 337.105469 318.410156 338.625 317.613281 C 340.148438 316.816406 341.78125 316.046875 343.519531 315.304688 C 345.257812 314.566406 347.097656 313.855469 349.035156 313.179688 C 350.972656 312.5 353.003906 311.859375 355.121094 311.25 C 357.242188 310.644531 359.441406 310.074219 361.71875 309.539062 C 364 309.007812 366.347656 308.515625 368.765625 308.0625 C 371.183594 307.613281 373.65625 307.203125 376.191406 306.835938 C 378.722656 306.46875 381.300781 306.148438 383.925781 305.871094 C 386.546875 305.589844 389.203125 305.359375 391.890625 305.171875 C 394.582031 304.984375 397.289062 304.84375 400.015625 304.75 C 402.746094 304.65625 405.480469 304.609375 408.222656 304.609375 C 410.960938 304.609375 413.699219 304.65625 416.425781 304.75 C 419.152344 304.84375 421.863281 304.984375 424.550781 305.171875 C 427.238281 305.359375 429.894531 305.589844 432.519531 305.871094 C 435.140625 306.148438 437.71875 306.46875 440.253906 306.835938 C 442.785156 307.203125 445.261719 307.613281 447.675781 308.0625 C 450.09375 308.515625 452.445312 309.007812 454.722656 309.539062 C 457.003906 310.074219 459.203125 310.644531 461.320312 311.25 C 463.441406 311.859375 465.46875 312.5 467.40625 313.179688 C 469.34375 313.855469 471.183594 314.566406 472.921875 315.304688 C 474.660156 316.046875 476.292969 316.816406 477.816406 317.613281 C 479.339844 318.410156 480.746094 319.230469 482.039062 320.074219 C 483.332031 320.921875 484.5 321.785156 485.550781 322.671875 C 486.601562 323.554688 487.523438 324.457031 488.316406 325.375 C 489.113281 326.292969 489.777344 327.21875 490.3125 328.160156 C 490.847656 329.097656 491.25 330.046875 491.519531 331 C 491.789062 331.953125 491.921875 332.910156 491.921875 333.867188 Z M 491.921875 333.867188 "/><path style=" stroke:none;fill-rule:nonzero;fill:#fbfbfb;fill-opacity:1;" d="M 408.222656 506.828125 C 454.449219 506.828125 491.921875 493.726562 491.921875 477.570312 L 491.921875 419.054688 C 491.921875 435.214844 454.449219 448.3125 408.222656 448.3125 C 361.996094 448.3125 324.523438 435.210938 324.523438 419.054688 L 324.523438 477.570312 C 324.523438 493.726562 361.996094 506.828125 408.222656 506.828125 Z M 443.917969 467.238281 L 453.710938 467.238281 L 453.710938 480.574219 L 443.917969 480.574219 Z M 417.453125 467.238281 L 427.246094 467.238281 L 427.246094 480.574219 L 417.453125 480.574219 Z M 389.199219 467.238281 L 398.988281 467.238281 L 398.988281 480.574219 L 389.199219 480.574219 Z M 362.734375 467.238281 L 372.527344 467.238281 L 372.527344 480.574219 L 362.734375 480.574219 Z M 362.734375 467.238281 "/><path style=" stroke:none;fill-rule:nonzero;fill:#fbfbfb;fill-opacity:1;" d="M 408.222656 434.976562 C 454.449219 434.976562 491.921875 421.878906 491.921875 405.71875 L 491.921875 347.203125 C 491.921875 363.363281 454.449219 376.460938 408.222656 376.460938 C 361.996094 376.460938 324.523438 363.363281 324.523438 347.203125 L 324.523438 405.71875 C 324.523438 421.878906 361.996094 434.976562 408.222656 434.976562 Z M 443.917969 395.386719 L 453.710938 395.386719 L 453.710938 408.722656 L 443.917969 408.722656 Z M 417.453125 395.386719 L 427.246094 395.386719 L 427.246094 408.722656 L 417.453125 408.722656 Z M 389.199219 395.386719 L 398.988281 395.386719 L 398.988281 408.722656 L 389.199219 408.722656 Z M 362.734375 395.386719 L 372.527344 395.386719 L 372.527344 408.722656 L 362.734375 408.722656 Z M 362.734375 395.386719 "/></g></svg>