<svg xmlns="http://www.w3.org/2000/svg" xmlns:xlink="http://www.w3.org/1999/xlink" width="1080" zoomAndPan="magnify" viewBox="0 0 810 809.999993" height="1080" preserveAspectRatio="xMidYMid meet" version="1.2"><g id="8631a0189c"><path style=" stroke:none;fill-rule:nonzero;fill:#fbfbfb;fill-opacity:1;" d="M 514.199219 414.1875 L 583.820312 414.1875 C 582.472656 442.261719 574.59375 470.125 560.066406 495.328125 C 534.867188 538.941406 492.785156 568.707031 444.839844 579.59375 C 487.273438 534.964844 512.09375 476.140625 514.199219 414.1875 Z M 413.464844 414.1875 L 496.851562 414.1875 C 494.433594 479.53125 465.214844 541.828125 415.496094 584.585938 C 414.820312 584.625 414.148438 584.757812 413.464844 584.757812 Z M 312.515625 414.1875 L 396.105469 414.1875 L 396.105469 583.953125 C 395.421875 583.917969 394.746094 583.828125 394.074219 583.789062 C 344.355469 541.015625 314.929688 479.53125 312.515625 414.1875 Z M 225.496094 414.1875 L 295.148438 414.1875 C 297.269531 476.140625 322.042969 534.957031 364.511719 579.59375 C 316.574219 568.714844 274.480469 538.941406 249.285156 495.328125 C 234.765625 470.125 226.84375 442.261719 225.496094 414.1875 Z M 444.839844 231.421875 C 492.777344 242.308594 534.867188 272.074219 560.066406 315.6875 C 574.59375 340.898438 582.472656 368.753906 583.820312 396.828125 L 514.199219 396.828125 C 512.046875 334.882812 487.273438 276.058594 444.839844 231.421875 Z M 364.511719 231.421875 C 322.078125 276.058594 297.261719 334.882812 295.148438 396.828125 L 225.496094 396.828125 C 226.84375 368.753906 234.773438 340.890625 249.292969 315.6875 C 274.480469 272.074219 316.582031 242.308594 364.511719 231.421875 Z M 396.105469 227.0625 L 396.105469 396.828125 L 312.515625 396.828125 C 314.929688 331.523438 344.355469 269.992188 394.074219 227.226562 C 394.746094 227.1875 395.421875 227.097656 396.105469 227.0625 Z M 413.464844 226.136719 C 414.1875 226.179688 414.863281 226.25 415.546875 226.300781 C 465.214844 269.074219 494.433594 331.53125 496.851562 396.835938 L 413.464844 396.835938 Z M 404.527344 208.589844 C 334.3125 208.679688 269.398438 246.203125 234.292969 307.042969 C 199.144531 367.949219 199.144531 443.058594 234.292969 503.964844 C 269.269531 564.511719 326.90625 601.953125 404.648438 602.117188 C 482.433594 601.953125 540.070312 564.511719 575.050781 503.964844 C 610.195312 443.058594 610.195312 367.949219 575.050781 307.042969 C 539.910156 246.203125 475.027344 208.679688 404.8125 208.589844 C 404.773438 208.589844 404.683594 208.589844 404.640625 208.589844 C 404.601562 208.589844 404.570312 208.589844 404.527344 208.589844 Z M 404.527344 208.589844 "/><path style=" stroke:none;fill-rule:nonzero;fill:#fbfbfb;fill-opacity:1;" d="M 157.785156 434.132812 L 172.859375 434.132812 C 173.671875 434.132812 174.046875 434.773438 174.046875 436.214844 L 174.046875 444.34375 C 174.046875 445.773438 173.664062 446.417969 172.859375 446.417969 L 157.785156 446.417969 C 156.972656 446.417969 156.597656 445.773438 156.597656 444.34375 L 156.597656 436.214844 C 156.589844 434.773438 156.972656 434.132812 157.785156 434.132812 Z M 126.570312 434.132812 L 141.644531 434.132812 C 142.449219 434.132812 142.832031 434.773438 142.832031 436.214844 L 142.832031 444.34375 C 142.832031 445.773438 142.449219 446.417969 141.644531 446.417969 L 126.570312 446.417969 C 125.765625 446.417969 125.382812 445.773438 125.382812 444.34375 L 125.382812 436.214844 C 125.382812 434.773438 125.765625 434.132812 126.570312 434.132812 Z M 95.359375 434.132812 L 110.433594 434.132812 C 111.238281 434.132812 111.621094 434.773438 111.621094 436.214844 L 111.621094 444.34375 C 111.621094 445.773438 111.238281 446.417969 110.433594 446.417969 L 95.359375 446.417969 C 94.554688 446.417969 94.171875 445.773438 94.171875 444.34375 L 94.171875 436.214844 C 94.171875 434.773438 94.554688 434.132812 95.359375 434.132812 Z M 143.847656 384.925781 L 169.550781 384.925781 C 172.648438 384.925781 174.046875 386.324219 174.046875 389.332031 L 174.046875 421.382812 C 174.046875 424.398438 172.648438 425.757812 169.550781 425.757812 L 143.847656 425.757812 C 140.757812 425.757812 139.359375 424.398438 139.359375 421.382812 L 139.359375 389.332031 C 139.359375 386.324219 140.757812 384.925781 143.847656 384.925781 Z M 98.660156 384.925781 L 124.367188 384.925781 C 127.457031 384.925781 128.855469 386.324219 128.855469 389.332031 L 128.855469 421.382812 C 128.855469 424.398438 127.457031 425.757812 124.367188 425.757812 L 98.660156 425.757812 C 95.570312 425.757812 94.171875 424.398438 94.171875 421.382812 L 94.171875 389.332031 C 94.171875 386.324219 95.570312 384.925781 98.660156 384.925781 Z M 157.785156 364.308594 L 172.859375 364.308594 C 173.671875 364.308594 174.046875 364.941406 174.046875 366.378906 L 174.046875 374.511719 C 174.046875 375.910156 173.664062 376.59375 172.859375 376.59375 L 157.785156 376.59375 C 156.972656 376.59375 156.597656 375.910156 156.597656 374.511719 L 156.597656 366.378906 C 156.589844 364.941406 156.972656 364.308594 157.785156 364.308594 Z M 126.570312 364.308594 L 141.644531 364.308594 C 142.449219 364.308594 142.832031 364.941406 142.832031 366.378906 L 142.832031 374.511719 C 142.832031 375.910156 142.449219 376.59375 141.644531 376.59375 L 126.570312 376.59375 C 125.765625 376.59375 125.382812 375.910156 125.382812 374.511719 L 125.382812 366.378906 C 125.382812 364.941406 125.765625 364.308594 126.570312 364.308594 Z M 95.359375 364.308594 L 110.433594 364.308594 C 111.238281 364.308594 111.621094 364.941406 111.621094 366.378906 L 111.621094 374.511719 C 111.621094 375.910156 111.238281 376.59375 110.433594 376.59375 L 95.359375 376.59375 C 94.554688 376.59375 94.171875 375.910156 94.171875 374.511719 L 94.171875 366.378906 C 94.171875 364.941406 94.554688 364.308594 95.359375 364.308594 Z M 92.652344 355.25 C 84.863281 355.25 81.300781 358.632812 81.300781 365.996094 L 81.300781 444.683594 C 81.300781 452.082031 84.863281 455.480469 92.652344 455.480469 L 175.566406 455.480469 C 183.355469 455.480469 186.914062 452.082031 186.914062 444.683594 L 186.914062 365.996094 C 186.914062 358.632812 183.355469 355.25 175.566406 355.25 Z M 92.652344 355.25 "/><path style=" stroke:none;fill-rule:nonzero;fill:#fbfbfb;fill-opacity:1;" d="M 404.660156 81.992188 C 397.292969 81.992188 390.179688 84.902344 384.925781 90.164062 C 379.671875 95.367188 376.746094 102.480469 376.746094 109.894531 C 376.746094 118.410156 380.640625 126.5 387.339844 131.78125 C 390.851562 135.644531 389.074219 138.695312 385.984375 139.882812 C 370.355469 143.34375 358.882812 155.589844 358.882812 172.476562 L 358.882812 176.070312 C 358.882812 180.019531 359.394531 182.222656 365.023438 182.222656 L 444.335938 182.222656 C 449.96875 182.222656 450.433594 180.019531 450.433594 176.070312 L 450.433594 172.476562 C 450.433594 155.589844 439 143.304688 423.375 139.882812 C 420.285156 138.695312 418.503906 135.6875 421.9375 131.871094 C 428.667969 126.578125 432.609375 118.449219 432.609375 109.894531 C 432.609375 102.480469 429.652344 95.367188 424.441406 90.164062 C 419.179688 84.902344 412.066406 81.992188 404.660156 81.992188 Z M 404.660156 81.992188 "/><path style=" stroke:none;fill-rule:nonzero;fill:#fbfbfb;fill-opacity:1;" d="M 653.816406 408.722656 L 653.816406 449.546875 C 653.816406 450.652344 654.027344 450.5625 655.046875 450.90625 L 672.324219 456.238281 C 674.226562 456.792969 675.914062 456.921875 677.828125 456.921875 L 703.664062 456.921875 C 712.941406 456.921875 718.355469 454.675781 720.128906 445.734375 L 727.714844 407.542969 C 728.941406 401.617188 727.203125 391.746094 716.707031 391.746094 L 700.445312 391.746094 C 695.707031 391.746094 694.4375 389.285156 695.160156 385.78125 L 697.234375 375.316406 C 699.476562 364.054688 690.664062 353.898438 684.492188 353.808594 C 678.304688 353.722656 679.835938 360.964844 677.964844 370.316406 C 676.101562 379.679688 661.875 397.257812 658.574219 401.324219 L 654.417969 406.828125 C 653.867188 407.496094 653.816406 407.878906 653.816406 408.722656 Z M 653.816406 408.722656 "/><path style=" stroke:none;fill-rule:nonzero;fill:#fbfbfb;fill-opacity:1;" d="M 631.125 451.710938 C 628.117188 451.710938 625.703125 450.1875 625.703125 447.304688 L 625.703125 410.765625 C 625.703125 407.878906 628.117188 406.398438 631.125 406.398438 L 640.273438 406.398438 C 643.273438 406.398438 645.6875 407.878906 645.6875 410.765625 L 645.6875 447.304688 C 645.6875 450.179688 643.273438 451.710938 640.273438 451.710938 Z M 631.125 451.710938 "/><path style=" stroke:none;fill-rule:nonzero;fill:#fbfbfb;fill-opacity:1;" d="M 421.421875 654.257812 C 423.925781 654.257812 426.546875 655.230469 427.734375 657.386719 L 450.605469 699.59375 C 453.695312 705.324219 452.675781 712.46875 444.710938 712.429688 L 362.4375 712.429688 C 356.800781 712.429688 356.085938 707.347656 358.324219 703.324219 L 374.542969 673.378906 C 375.347656 671.859375 377.210938 671.175781 378.992188 671.175781 C 380.730469 671.175781 382.632812 671.859375 383.4375 673.410156 L 398.472656 701.242188 C 401.136719 706.355469 408.804688 702.339844 406.097656 697.21875 L 399.917969 685.402344 L 415.164062 657.371094 C 416.34375 655.230469 418.976562 654.257812 421.421875 654.257812 Z M 393.519531 642.726562 C 398.941406 642.726562 403.300781 647.09375 403.300781 652.476562 C 403.300781 657.898438 398.941406 662.257812 393.519531 662.257812 C 388.144531 662.257812 383.789062 657.859375 383.789062 652.476562 C 383.789062 647.09375 388.144531 642.726562 393.519531 642.726562 Z M 354.949219 628.507812 C 347.402344 628.507812 341.355469 634.765625 341.355469 642.523438 L 341.355469 714.773438 C 341.355469 722.519531 347.402344 728.738281 354.949219 728.738281 L 454.417969 728.738281 C 461.953125 728.738281 468.011719 722.519531 468.011719 714.773438 L 468.011719 642.523438 C 468.011719 634.765625 461.953125 628.507812 454.417969 628.507812 Z M 354.949219 628.507812 "/><path style=" stroke:none;fill-rule:nonzero;fill:#fbfbfb;fill-opacity:1;" d="M 578.609375 560.625 C 567.179688 574.390625 566.464844 597.253906 581.960938 612.800781 C 582.042969 612.871094 582.128906 612.96875 582.210938 613.050781 L 623.035156 648.160156 C 624.726562 649.636719 627.269531 649.636719 629.003906 648.160156 L 669.785156 613.050781 C 669.914062 612.96875 669.996094 612.878906 670.078125 612.800781 C 685.535156 597.253906 684.859375 574.390625 673.429688 560.625 C 667.242188 553.210938 657.800781 548.851562 648.019531 549.070312 C 639.929688 549.234375 632.140625 553.722656 625.996094 561.097656 C 619.855469 553.722656 612.066406 549.242188 603.171875 549.070312 C 594.238281 548.851562 584.757812 553.210938 578.609375 560.625 Z M 578.609375 560.625 "/><path style=" stroke:none;fill-rule:nonzero;fill:#fbfbfb;fill-opacity:1;" d="M 182.25 549.023438 C 177.417969 549.023438 176.019531 553.675781 173.574219 558 L 172.046875 560.625 L 144.183594 560.625 C 136.816406 560.625 130.878906 566.757812 130.878906 574.351562 L 130.878906 635.53125 C 130.878906 643.148438 136.808594 649.296875 144.183594 649.296875 L 241.617188 649.296875 C 248.984375 649.296875 254.910156 643.148438 254.910156 635.53125 L 254.910156 574.351562 C 254.910156 566.757812 248.984375 560.625 241.617188 560.625 L 213.746094 560.625 L 212.21875 558 C 209.761719 553.675781 208.363281 549.023438 203.542969 549.023438 Z M 192.882812 581.839844 C 206.136719 581.839844 216.894531 592.59375 216.894531 605.847656 C 216.894531 619.109375 206.136719 629.863281 192.882812 629.863281 C 179.632812 629.863281 168.914062 619.109375 168.914062 605.847656 C 168.914062 592.59375 179.632812 581.839844 192.882812 581.839844 Z M 192.882812 581.839844 "/><path style=" stroke:none;fill-rule:nonzero;fill:#fbfbfb;fill-opacity:1;" d="M 217.40625 214.105469 C 212.03125 214.105469 207.664062 209.746094 207.664062 204.371094 C 207.664062 198.996094 212.03125 194.671875 217.40625 194.671875 C 222.78125 194.671875 227.097656 198.996094 227.097656 204.371094 C 227.097656 209.746094 222.78125 214.105469 217.40625 214.105469 Z M 189.070312 214.105469 C 183.695312 214.105469 179.332031 209.746094 179.332031 204.371094 C 179.332031 198.996094 183.695312 194.671875 189.070312 194.671875 C 194.445312 194.671875 198.8125 198.996094 198.8125 204.371094 C 198.8125 209.746094 194.445312 214.105469 189.070312 214.105469 Z M 160.742188 214.105469 C 155.371094 214.105469 151.050781 209.746094 151.050781 204.371094 C 151.050781 198.996094 155.371094 194.671875 160.742188 194.671875 C 166.117188 194.671875 170.484375 198.996094 170.484375 204.371094 C 170.484375 209.746094 166.117188 214.105469 160.742188 214.105469 Z M 225.234375 161.476562 L 152.90625 161.476562 C 140.667969 161.476562 130.890625 170.363281 130.890625 182.386719 L 130.890625 226.902344 C 130.890625 238.878906 140.667969 248.074219 152.90625 248.074219 L 160.109375 248.074219 L 163.628906 258.40625 C 164.777344 261.625 169.476562 262.773438 172.011719 260.519531 L 186.324219 248.074219 L 225.242188 248.074219 C 237.480469 248.074219 247.429688 238.878906 247.429688 226.902344 L 247.429688 182.386719 C 247.421875 170.363281 237.472656 161.476562 225.234375 161.476562 Z M 225.234375 161.476562 "/><path style=" stroke:none;fill-rule:evenodd;fill:#fbfbfb;fill-opacity:1;" d="M 655.980469 170.785156 C 659.710938 170.363281 664.410156 183.957031 666.394531 201.191406 C 668.429688 218.46875 667.03125 232.78125 663.304688 233.203125 C 660.507812 233.542969 657.117188 226.007812 654.703125 214.234375 C 659.199219 211.820312 661.738281 206.910156 661.144531 201.828125 C 660.550781 196.753906 656.90625 192.605469 651.996094 191.289062 C 651.621094 179.25 653.183594 171.117188 655.980469 170.785156 Z M 658.101562 157.363281 C 655.011719 157.566406 652.132812 158.5 650.011719 159.9375 C 638.5 167.980469 622.570312 175.859375 607.417969 180.222656 C 605.636719 198.730469 608.816406 220.203125 615.546875 235.40625 C 630.882812 236.25 647.523438 239.894531 660.054688 245.144531 C 663.3125 246.503906 665.09375 246.203125 668.523438 245.78125 C 675.597656 244.976562 678.777344 224.609375 675.890625 200.085938 C 673.003906 175.605469 665.214844 156.847656 658.101562 157.363281 Z M 658.101562 157.363281 "/><path style=" stroke:none;fill-rule:evenodd;fill:#fbfbfb;fill-opacity:1;" d="M 599.878906 182.085938 C 596.660156 182.808594 593.480469 183.304688 590.480469 183.613281 L 574.089844 185.515625 C 565.789062 186.324219 560.367188 199.957031 561.640625 213.535156 C 563.542969 227.015625 571.976562 238.992188 580.269531 237.894531 L 584.421875 237.382812 L 595.8125 265.960938 C 596.832031 268.503906 598.992188 269.652344 601.863281 269.308594 L 619.011719 267.269531 C 623.035156 266.8125 624.34375 263.847656 622.996094 260.496094 L 619.515625 251.730469 C 618.667969 249.578125 617.695312 248.804688 615.703125 247.40625 L 611.171875 244.269531 C 601.441406 221.894531 598.523438 201.28125 599.878906 182.085938 Z M 599.878906 182.085938 "/></g></svg>