<svg xmlns="http://www.w3.org/2000/svg" xmlns:xlink="http://www.w3.org/1999/xlink" width="1080" zoomAndPan="magnify" viewBox="0 0 810 809.999993" height="1080" preserveAspectRatio="xMidYMid meet" version="1.2"><defs><clipPath id="c41e419be7"><path d="M 81 81 L 729 81 L 729 729 L 81 729 Z M 81 81 "/></clipPath></defs><g id="9c8f3f957f"><g clip-rule="nonzero" clip-path="url(#c41e419be7)"><path style=" stroke:none;fill-rule:nonzero;fill:#fbfbfb;fill-opacity:1;" d="M 662.128906 207.714844 C 618.984375 151.464844 557.511719 110.371094 489.035156 92.011719 C 461.902344 84.734375 433.757812 81.046875 405.386719 81.046875 C 362.367188 81.046875 320.613281 89.308594 281.28125 105.601562 C 215.777344 132.722656 160.183594 181.472656 124.738281 242.859375 C 96.128906 292.003906 81 348.035156 81 404.886719 C 81 461.738281 96.117188 517.753906 124.941406 567.203125 C 125.308594 567.667969 125.660156 568.171875 126.0625 568.839844 L 126.375 569.304688 C 164.464844 634.273438 224.449219 684.160156 295.289062 709.765625 C 330.714844 722.558594 367.925781 728.957031 405.140625 728.957031 C 442.355469 728.957031 479.570312 722.558594 514.988281 709.765625 C 585.359375 684.332031 645.101562 634.863281 683.34375 570.246094 L 683.640625 569.605469 C 684.175781 568.605469 684.609375 567.96875 685.105469 567.289062 L 685.488281 566.710938 C 713.992188 517.832031 729.039062 461.871094 729.003906 404.890625 L 729.003906 401.914062 C 728.375 332.082031 704.621094 263.113281 662.128906 207.714844 Z M 543.726562 479.5625 C 546.304688 454.847656 547.640625 429.71875 547.695312 404.863281 C 547.640625 380.003906 546.304688 354.890625 543.722656 330.214844 L 542.921875 322.566406 L 550.472656 321.121094 C 584.941406 314.519531 618.492188 303.558594 650.183594 288.535156 L 657.925781 284.875 L 661.414062 292.6875 C 677.277344 328.230469 685.320312 365.980469 685.320312 404.890625 C 685.320312 443.804688 677.277344 481.554688 661.414062 517.085938 L 657.925781 524.910156 L 650.195312 521.25 C 618.484375 506.246094 584.929688 495.28125 550.476562 488.660156 L 542.925781 487.207031 Z M 179.808594 570.996094 L 173.703125 562.710938 L 183.0625 558.421875 C 209.21875 546.457031 236.769531 537.515625 264.945312 531.835938 L 273.351562 530.140625 L 274.847656 538.589844 C 281.882812 578.464844 294.382812 617.164062 312.003906 653.613281 L 321.398438 673.050781 L 301.351562 665.035156 L 301.355469 665.035156 C 252.832031 645.609375 210.800781 613.089844 179.808594 570.996094 Z M 301.367188 144.90625 L 321.5625 136.6875 L 312.058594 156.304688 C 294.398438 192.738281 281.875 231.421875 274.835938 271.273438 L 273.339844 279.726562 L 264.925781 278.019531 C 236.722656 272.300781 209.179688 263.335938 183.058594 251.375 L 173.941406 247.203125 L 180.140625 238.246094 L 180.207031 238.144531 C 180.632812 237.464844 181.074219 236.796875 181.558594 236.164062 C 183.34375 233.804688 185.269531 231.542969 187.195312 229.292969 C 188.128906 228.207031 189.058594 227.117188 189.960938 226.023438 C 194.394531 220.707031 199.191406 215.054688 204.296875 209.761719 C 207.203125 206.746094 210.257812 203.953125 212.945312 201.488281 L 214.675781 199.90625 C 219.511719 195.398438 224.703125 190.636719 230.390625 186.25 C 233.621094 183.605469 237.257812 180.980469 240.464844 178.671875 L 241.84375 177.679688 C 247.164062 173.835938 252.800781 170.078125 258.601562 166.5 C 262.746094 163.949219 266.945312 161.5 271.136719 159.191406 C 276.613281 156.324219 282.996094 153.023438 289.464844 150.117188 C 293.359375 148.347656 297.328125 146.546875 301.367188 144.90625 Z M 308.992188 338.027344 L 309.769531 329.40625 L 318.363281 330.472656 C 347.03125 334.03125 376.1875 335.921875 405.050781 336.089844 C 433.828125 335.921875 462.945312 334.03125 491.574219 330.472656 L 500.140625 329.40625 L 500.941406 338.003906 C 502.972656 359.832031 503.996094 382.339844 503.996094 404.894531 C 503.996094 427.0625 502.996094 448.949219 500.941406 471.800781 L 500.175781 480.355469 L 491.632812 479.359375 C 462.878906 476.019531 433.925781 474.347656 404.96875 474.347656 C 376.007812 474.347656 347.050781 476.019531 318.292969 479.359375 L 309.757812 480.355469 L 308.984375 471.800781 C 306.929688 448.941406 305.933594 427.054688 305.933594 404.894531 C 305.941406 382.6875 306.941406 360.816406 308.992188 338.027344 Z M 485.039062 287.265625 C 432.125 293.296875 377.808594 293.296875 324.914062 287.265625 L 315.921875 286.238281 L 317.640625 277.351562 C 335.371094 185.957031 370.464844 124.550781 404.976562 124.550781 C 439.488281 124.550781 474.582031 185.957031 492.300781 277.351562 L 494.027344 286.238281 Z M 324.90625 522.535156 C 378.035156 516.480469 431.910156 516.476562 485.023438 522.535156 L 494.011719 523.554688 L 492.285156 532.441406 C 474.570312 623.835938 439.476562 685.242188 404.960938 685.242188 C 370.449219 685.242188 335.355469 623.835938 317.628906 532.441406 L 315.910156 523.554688 Z M 488.535156 673.054688 L 497.949219 653.613281 C 515.574219 617.164062 528.074219 578.464844 535.105469 538.589844 L 536.59375 530.144531 L 544.996094 531.839844 C 573.148438 537.511719 600.699219 546.460938 626.875 558.421875 L 636.238281 562.699219 L 630.140625 571 C 599.15625 613.097656 557.125 645.617188 508.585938 665.042969 Z M 626.808594 251.378906 C 600.644531 263.355469 573.097656 272.316406 544.933594 277.992188 L 536.523438 279.691406 L 535.039062 271.230469 C 528.03125 231.421875 515.558594 192.765625 497.972656 156.328125 L 488.613281 136.945312 L 508.605469 144.914062 L 508.613281 144.917969 C 512.613281 146.507812 516.503906 148.28125 520.421875 150.070312 C 527.289062 153.164062 533.347656 156.167969 538.957031 159.257812 C 543.066406 161.515625 547.105469 163.902344 551.121094 166.34375 C 557.039062 169.96875 562.871094 173.878906 568.472656 177.964844 C 572.453125 180.828125 576.039062 183.433594 579.605469 186.308594 C 584.449219 190.164062 589.558594 194.632812 595.683594 200.363281 L 598.554688 203.046875 C 600.910156 205.230469 603.257812 207.414062 605.554688 209.867188 C 610.691406 215.125 615.527344 220.867188 620.453125 226.804688 L 622.898438 229.691406 C 624.671875 231.769531 626.457031 233.867188 628.117188 235.925781 C 628.730469 236.722656 629.1875 237.421875 629.648438 238.15625 L 636.183594 247.09375 Z M 266.210938 330.238281 C 260.933594 379.78125 260.933594 430.011719 266.210938 479.542969 L 267.027344 487.207031 L 259.464844 488.660156 C 224.972656 495.269531 191.425781 506.230469 159.757812 521.238281 L 152.019531 524.914062 L 148.527344 517.097656 C 132.664062 481.558594 124.621094 443.808594 124.621094 404.894531 C 124.621094 365.976562 132.664062 328.226562 148.527344 292.695312 L 152.015625 284.886719 L 159.75 288.542969 C 191.476562 303.550781 225.027344 314.511719 259.46875 321.132812 L 267.03125 322.582031 Z M 266.210938 330.238281 "/></g></g></svg>