<svg xmlns="http://www.w3.org/2000/svg" xmlns:xlink="http://www.w3.org/1999/xlink" width="1080" zoomAndPan="magnify" viewBox="0 0 810 809.999993" height="1080" preserveAspectRatio="xMidYMid meet" version="1.2"><g id="64adc8336e"><path style=" stroke:none;fill-rule:nonzero;fill:#fbfbfb;fill-opacity:1;" d="M 591.597656 166.742188 C 606.953125 166.257812 606.957031 143.984375 591.597656 143.496094 C 576.242188 143.980469 576.238281 166.253906 591.597656 166.742188 Z M 591.597656 166.742188 "/><path style=" stroke:none;fill-rule:nonzero;fill:#fbfbfb;fill-opacity:1;" d="M 522.25 166.742188 C 537.605469 166.257812 537.609375 143.984375 522.25 143.496094 C 506.894531 143.980469 506.890625 166.253906 522.25 166.742188 Z M 522.25 166.742188 "/><path style=" stroke:none;fill-rule:nonzero;fill:#fbfbfb;fill-opacity:1;" d="M 660.949219 166.742188 C 676.304688 166.257812 676.308594 143.984375 660.949219 143.496094 C 645.597656 143.984375 645.59375 166.253906 660.949219 166.742188 Z M 660.949219 166.742188 "/><path style=" stroke:none;fill-rule:nonzero;fill:#fbfbfb;fill-opacity:1;" d="M 722.011719 81.269531 L 87.71875 81.269531 C 84.007812 81.269531 81 84.277344 81 87.988281 L 81 610.175781 C 81 613.890625 84.007812 616.898438 87.71875 616.898438 L 360.304688 616.898438 C 362.804688 616.898438 365.097656 615.507812 366.257812 613.292969 C 367.417969 611.078125 367.25 608.402344 365.824219 606.34375 L 283.207031 487.308594 L 397.023438 579.886719 C 398.175781 580.824219 399.605469 581.351562 401.089844 581.390625 L 462.703125 582.976562 L 489.308594 603.042969 L 573.425781 715.636719 C 579.597656 723.929688 589.457031 728.863281 599.792969 728.847656 C 608.488281 728.847656 616.859375 725.402344 623.054688 719.207031 L 666.804688 675.457031 C 673.5625 668.699219 677.046875 659.359375 676.359375 649.828125 C 675.671875 640.296875 670.886719 631.546875 663.230469 625.828125 C 663.230469 625.828125 550.636719 541.707031 550.636719 541.707031 L 530.566406 515.09375 L 529.007812 453.476562 C 528.972656 451.984375 528.4375 450.542969 527.488281 449.386719 C 527.488281 449.386719 439.09375 341.589844 439.089844 341.589844 C 439.089844 341.589844 432.519531 333.578125 432.519531 333.578125 L 718.28125 524.199219 C 722.511719 527.1875 728.898438 523.835938 728.730469 518.605469 C 728.730469 427.382812 728.734375 175.589844 728.730469 87.988281 C 728.730469 84.277344 725.722656 81.269531 722.011719 81.269531 Z M 686.007812 155.121094 C 684.636719 188.355469 637.265625 188.367188 635.890625 155.121094 C 637.269531 121.863281 684.640625 121.890625 686.007812 155.121094 Z M 616.660156 155.121094 C 615.289062 188.355469 567.914062 188.367188 566.539062 155.121094 C 567.917969 121.863281 615.292969 121.890625 616.660156 155.121094 Z M 547.308594 155.121094 C 545.9375 188.355469 498.566406 188.367188 497.1875 155.121094 C 498.570312 121.863281 545.941406 121.890625 547.308594 155.121094 Z M 292.617188 477.640625 L 260.636719 451.628906 L 398.714844 313.550781 L 424.84375 345.414062 Z M 493.496094 589.371094 L 475.234375 575.597656 L 523.195312 527.636719 L 536.964844 545.898438 Z M 406.835938 300.292969 C 415.835938 266.417969 361.953125 220.464844 334.722656 246.191406 C 334.722656 246.191406 189.695312 391.21875 189.695312 391.21875 C 176.84375 404.074219 181.199219 428.566406 199.613281 446.972656 C 203.632812 451 208.003906 454.40625 212.605469 457.101562 C 215.75 458.960938 219.910156 457.9375 221.796875 454.707031 C 223.675781 451.507812 222.605469 447.390625 219.402344 445.511719 C 203.570312 437.160156 188.882812 411.082031 199.199219 400.71875 C 209.789062 391.792969 227.273438 401.941406 235.949219 410.664062 C 248.59375 423.304688 253.136719 440.125 245.871094 447.390625 C 243.910156 449.378906 243.332031 452.535156 244.578125 455.050781 C 244.816406 455.898438 346.992188 602.605469 347.460938 603.457031 L 94.4375 603.457031 L 94.4375 180.222656 L 442.066406 180.222656 L 488.519531 226.675781 C 489.78125 227.933594 491.488281 228.640625 493.269531 228.640625 L 715.292969 228.640625 L 715.292969 506.046875 Z M 406.835938 300.292969 "/></g></svg>